<svg xmlns="http://www.w3.org/2000/svg" width="166.15" height="35" viewBox="0 0 166.15 35"><rect class="svg__rect" x="0" y="0" width="64.19" height="35" fill="#005384"/><rect class="svg__rect" x="62.19" y="0" width="103.96000000000001" height="35" fill="#389AD5"/><path class="svg__text" d="M15.70 22L14.22 22L14.22 13.47L19.64 13.47L19.64 14.66L15.70 14.66L15.70 17.20L19.13 17.20L19.13 18.38L15.70 18.38L15.70 22ZM25.28 22L23.80 22L23.80 13.47L26.80 13.47Q28.27 13.47 29.08 14.13Q29.88 14.79 29.88 16.05L29.88 16.05Q29.88 16.90 29.47 17.48Q29.05 18.06 28.31 18.37L28.31 18.37L30.23 21.92L30.23 22L28.64 22L26.93 18.71L25.28 18.71L25.28 22ZM25.28 14.66L25.28 17.52L26.80 17.52Q27.55 17.52 27.98 17.15Q28.40 16.77 28.40 16.11L28.40 16.11Q28.40 15.43 28.01 15.05Q27.62 14.68 26.84 14.66L26.84 14.66L25.28 14.66ZM39.85 22L34.27 22L34.27 13.47L39.81 13.47L39.81 14.66L35.76 14.66L35.76 17.02L39.26 17.02L39.26 18.19L35.76 18.19L35.76 20.82L39.85 20.82L39.85 22ZM46.50 22L44.05 22L44.05 13.47L46.57 13.47Q47.70 13.47 48.57 13.97Q49.45 14.48 49.93 15.40Q50.41 16.33 50.41 17.52L50.41 17.52L50.41 17.95Q50.41 19.16 49.93 20.08Q49.44 21.00 48.55 21.50Q47.66 22 46.50 22L46.50 22ZM45.53 14.66L45.53 20.82L46.50 20.82Q47.66 20.82 48.29 20.09Q48.91 19.36 48.92 17.99L48.92 17.99L48.92 17.52Q48.92 16.13 48.32 15.40Q47.72 14.66 46.57 14.66L46.57 14.66L45.53 14.66Z" fill="#FFFFFF"/><path class="svg__text" d="M82.76 22L76.38 22L76.38 13.60L78.76 13.60L78.76 20.11L82.76 20.11L82.76 22ZM93.93 22L87.18 22L87.18 13.60L93.77 13.60L93.77 15.44L89.54 15.44L89.54 16.85L93.27 16.85L93.27 18.63L89.54 18.63L89.54 20.17L93.93 20.17L93.93 22ZM98.15 21.24L98.15 21.24L98.92 19.49Q99.49 19.86 100.23 20.09Q100.98 20.32 101.70 20.32L101.70 20.32Q103.06 20.32 103.07 19.64L103.07 19.64Q103.07 19.28 102.68 19.11Q102.29 18.93 101.42 18.74L101.42 18.74Q100.47 18.53 99.84 18.30Q99.20 18.06 98.75 17.55Q98.29 17.03 98.29 16.16L98.29 16.16Q98.29 15.39 98.71 14.77Q99.13 14.15 99.96 13.79Q100.80 13.43 102.01 13.43L102.01 13.43Q102.83 13.43 103.64 13.62Q104.44 13.80 105.06 14.17L105.06 14.17L104.33 15.93Q103.13 15.28 102.00 15.28L102.00 15.28Q101.29 15.28 100.96 15.49Q100.64 15.70 100.64 16.04L100.64 16.04Q100.64 16.37 101.03 16.54Q101.41 16.71 102.26 16.89L102.26 16.89Q103.22 17.10 103.85 17.33Q104.48 17.56 104.94 18.07Q105.41 18.58 105.41 19.46L105.41 19.46Q105.41 20.21 104.99 20.83Q104.57 21.44 103.73 21.80Q102.89 22.17 101.68 22.17L101.68 22.17Q100.66 22.17 99.70 21.92Q98.74 21.67 98.15 21.24ZM109.55 17.80L109.55 17.80Q109.55 16.54 110.15 15.54Q110.75 14.55 111.80 13.99Q112.85 13.43 114.17 13.43L114.17 13.43Q115.33 13.43 116.25 13.84Q117.17 14.25 117.79 15.02L117.79 15.02L116.27 16.39Q115.46 15.40 114.29 15.40L114.29 15.40Q113.61 15.40 113.08 15.70Q112.54 16 112.25 16.54Q111.95 17.09 111.95 17.80L111.95 17.80Q111.95 18.51 112.25 19.05Q112.54 19.60 113.08 19.90Q113.61 20.20 114.29 20.20L114.29 20.20Q115.46 20.20 116.27 19.22L116.27 19.22L117.79 20.58Q117.18 21.35 116.25 21.76Q115.33 22.17 114.17 22.17L114.17 22.17Q112.85 22.17 111.80 21.61Q110.75 21.05 110.15 20.05Q109.55 19.06 109.55 17.80ZM122.25 18.26L122.25 18.26L122.25 13.60L124.63 13.60L124.63 18.19Q124.63 20.20 126.22 20.20L126.22 20.20Q127.81 20.20 127.81 18.19L127.81 18.19L127.81 13.60L130.15 13.60L130.15 18.26Q130.15 20.13 129.11 21.15Q128.07 22.17 126.20 22.17L126.20 22.17Q124.33 22.17 123.29 21.15Q122.25 20.13 122.25 18.26ZM137.61 22L135.24 22L135.24 13.60L139.08 13.60Q140.22 13.60 141.06 13.98Q141.90 14.35 142.35 15.06Q142.81 15.76 142.81 16.71L142.81 16.71Q142.81 17.62 142.38 18.30Q141.96 18.98 141.16 19.36L141.16 19.36L142.98 22L140.43 22L138.91 19.77L137.61 19.77L137.61 22ZM137.61 15.47L137.61 17.93L138.93 17.93Q139.66 17.93 140.04 17.61Q140.41 17.29 140.41 16.71L140.41 16.71Q140.41 16.12 140.04 15.79Q139.66 15.47 138.93 15.47L138.93 15.47L137.61 15.47ZM154.34 22L147.60 22L147.60 13.60L154.19 13.60L154.19 15.44L149.95 15.44L149.95 16.85L153.69 16.85L153.69 18.63L149.95 18.63L149.95 20.17L154.34 20.17L154.34 22Z" fill="#FFFFFF" x="75.19"/></svg>